<svg width="32" height="32" viewBox="0 0 32 32" fill="none" xmlns="http://www.w3.org/2000/svg">
  <defs>
    <linearGradient id="treasureGradient" x1="0%" y1="0%" x2="100%" y2="100%">
      <stop offset="0%" style="stop-color:#fbbf24;stop-opacity:1" />
      <stop offset="100%" style="stop-color:#f59e0b;stop-opacity:1" />
    </linearGradient>
    <linearGradient id="backgroundGradient" x1="0%" y1="0%" x2="100%" y2="100%">
      <stop offset="0%" style="stop-color:#1e293b;stop-opacity:1" />
      <stop offset="100%" style="stop-color:#0f172a;stop-opacity:1" />
    </linearGradient>
    <linearGradient id="lockGradient" x1="0%" y1="0%" x2="100%" y2="100%">
      <stop offset="0%" style="stop-color:#8b5cf6;stop-opacity:1" />
      <stop offset="100%" style="stop-color:#6366f1;stop-opacity:1" />
    </linearGradient>
  </defs>
  
  <!-- Background circle -->
  <circle cx="16" cy="16" r="15" fill="url(#backgroundGradient)" stroke="url(#treasureGradient)" stroke-width="2"/>
  
  <!-- Treasure chest -->
  <rect x="8" y="12" width="16" height="10" rx="2" fill="url(#treasureGradient)" stroke="white" stroke-width="1"/>
  
  <!-- Chest lid -->
  <path d="M8 12L16 8L24 12V14L8 14V12Z" fill="url(#treasureGradient)" stroke="white" stroke-width="1"/>
  
  <!-- Lock on chest -->
  <rect x="14" y="16" width="4" height="3" rx="1" fill="url(#lockGradient)"/>
  <path d="M16 14C16 13.4 15.6 13 15 13S14 13.4 14 14V16H18V14C18 13.4 17.6 13 17 13S16 13.4 16 14Z" fill="url(#lockGradient)"/>
  
  <!-- FHE text -->
  <text x="16" y="26" font-family="Arial, sans-serif" font-size="5" font-weight="bold" text-anchor="middle" fill="white">FHE</text>
</svg>
